<svg xmlns="http://www.w3.org/2000/svg" width="14" height="14" fill="none"><path fill="#DCDDDF" d="M4.667 11c-.734 0-1.327.6-1.327 1.333 0 .734.593 1.334 1.327 1.334.733 0 1.333-.6 1.333-1.334C6 11.6 5.4 11 4.667 11Zm-4-10c0 .367.3.667.666.667H2l2.4 5.06-.9 1.626c-.487.894.153 1.98 1.167 1.98H12c.367 0 .666-.3.666-.666 0-.367-.3-.667-.666-.667H4.667L5.4 7.667h4.966c.5 0 .94-.274 1.167-.687l2.387-4.327a.665.665 0 0 0-.58-.986H3.473L3.027.713a.662.662 0 0 0-.6-.38H1.332C.967.333.667.633.667 1Zm10.666 10c-.733 0-1.326.6-1.326 1.333 0 .734.593 1.334 1.326 1.334.733 0 1.333-.6 1.333-1.334 0-.733-.6-1.333-1.333-1.333Z"/></svg>