<svg xmlns="http://www.w3.org/2000/svg" width="18" height="18" fill="none">
<defs>
<clipPath id="a">
<path fill="#fff" fill-opacity="0" d="M0 0h18v18H0z"/>
</clipPath>
</defs>
<path fill="none" d="M0 0h18v18H0z"/>
<g stroke="#1D1E21" stroke-linejoin="round" stroke-width="1.5" clip-path="url(#a)">
<path d="M13.45 13.45A7.548 7.548 0 0 1 9 15C3.75 15 .75 9 .75 9c.93-1.74 2.22-3.26 3.79-4.46m2.88-1.37C7.94 3.05 8.46 2.99 9 3c5.25 0 8.25 6 8.25 6-.46.85-1 1.65-1.63 2.39m-5.04-.8c-.2.22-.45.39-.73.52-.27.12-.57.19-.87.19a2.215 2.215 0 0 1-1.63-.66 2.215 2.215 0 0 1-.66-1.63c0-.3.07-.6.19-.87.13-.28.3-.53.53-.73"/>
<path stroke-linecap="round" d="m.75.75 16.5 16.5"/>
</g>
</svg>