<svg xmlns="http://www.w3.org/2000/svg" aria-hidden="true" style="position:absolute;width:0;height:0;overflow:hidden">
<defs>

<symbol id="openeye" viewBox="0 0 24 24">
<path d="M.106 11.553a.997.997 0 0 0 0 .894s.396.789 1.12 1.843a20.553 20.553 0 0 0 1.757 2.218c.894.979 2.004 1.987 3.319 2.8C7.897 20.294 9.808 21 12 21s4.103-.706 5.698-1.692c1.315-.813 2.425-1.821 3.319-2.8a20.678 20.678 0 0 0 1.757-2.218 17.468 17.468 0 0 0 1.12-1.843.997.997 0 0 0 0-.894s-.396-.789-1.12-1.843a20.553 20.553 0 0 0-1.757-2.218c-.894-.979-2.004-1.987-3.319-2.8C16.103 3.706 14.192 3 12 3s-4.103.706-5.698 1.692c-1.315.813-2.425 1.821-3.319 2.8A20.455 20.455 0 0 0 1.226 9.71a17.468 17.468 0 0 0-1.12 1.843zM2.14 12a18.575 18.575 0 0 1 2.319-3.159c.805-.881 1.775-1.756 2.894-2.448C8.703 5.559 10.254 5 12 5s3.297.559 4.646 1.393c1.119.692 2.089 1.567 2.894 2.448A18.701 18.701 0 0 1 21.859 12a18.575 18.575 0 0 1-2.319 3.159c-.805.881-1.775 1.756-2.894 2.448C15.297 18.441 13.746 19 12 19s-3.297-.559-4.646-1.393c-1.119-.692-2.089-1.567-2.894-2.448A18.701 18.701 0 0 1 2.14 12zM16 12c0-1.104-.449-2.106-1.172-2.828a3.994 3.994 0 0 0-5.656 0 3.994 3.994 0 0 0 0 5.656 3.994 3.994 0 0 0 5.656 0A3.994 3.994 0 0 0 16 12zm-2 0c0 .553-.223 1.051-.586 1.414S12.553 14 12 14s-1.051-.223-1.414-.586S10 12.553 10 12s.223-1.051.586-1.414S11.447 10 12 10s1.051.223 1.414.586S14 11.447 14 12z"/>
</symbol>

<symbol id="closeeye" viewBox="0 0 24 24">
<path d="M10.128 5.214A7.908 7.908 0 0 1 11.988 5c1.758 0 3.309.559 4.658 1.393 1.119.692 2.089 1.567 2.894 2.448a18.701 18.701 0 0 1 2.318 3.156 16.723 16.723 0 0 1-1.778 2.542 1 1 0 0 0 1.518 1.302 18.991 18.991 0 0 0 2.283-3.37 1 1 0 0 0 .013-.919s-.396-.789-1.12-1.843a20.553 20.553 0 0 0-1.757-2.218c-.894-.979-2.004-1.987-3.319-2.8C16.103 3.706 14.192 3 12.012 3a9.899 9.899 0 0 0-2.34.266 1 1 0 1 0 .456 1.948zm-.101 6.228 2.531 2.531a2.003 2.003 0 0 1-2.531-2.532zM5.983 7.397 8.536 9.95a3.993 3.993 0 0 0-.608 2.266c.036 1.022.463 2.033 1.271 2.785s1.846 1.107 2.868 1.071a3.991 3.991 0 0 0 1.984-.608l2.322 2.322A8.962 8.962 0 0 1 11.989 19c-1.734 0-3.285-.559-4.634-1.393-1.119-.692-2.089-1.567-2.894-2.448a18.701 18.701 0 0 1-2.317-3.155 17.275 17.275 0 0 1 3.841-4.607zm-5.69-5.69 4.271 4.271a19.34 19.34 0 0 0-4.445 5.549.999.999 0 0 0-.013.92s.396.789 1.12 1.843a20.553 20.553 0 0 0 1.757 2.218c.894.979 2.004 1.987 3.319 2.8C7.897 20.294 9.808 21 12.012 21a10.98 10.98 0 0 0 5.815-1.759l4.466 4.466a.999.999 0 1 0 1.414-1.414l-8.876-8.876-.007-.007-4.209-4.21-.024-.024L1.707.293A.999.999 0 1 0 .293 1.707z"/>
</symbol>

<symbol id="close" viewBox="0 0 32 32">
<path id="Vector" stroke="#1D1E21" stroke-linecap="round" stroke-linejoin="round" stroke-opacity="1" stroke-width="2" d="M24 8 8 24M8 8l16 16"/>
</symbol>

<symbol id="dashboard" viewBox="0 0 12 12">
<path id="Vector" d="M0.66 6.66L4.66 6.66C5.03 6.66 5.33 6.36 5.33 6L5.33 0.66C5.33 0.29 5.03 0 4.66 0L0.66 0C0.29 0 0 0.29 0 0.66L0 6C0 6.36 0.29 6.66 0.66 6.66ZM0.66 12L4.66 12C5.03 12 5.33 11.7 5.33 11.33L5.33 8.66C5.33 8.29 5.03 8 4.66 8L0.66 8C0.29 8 0 8.29 0 8.66L0 11.33C0 11.7 0.29 12 0.66 12ZM7.33 12L11.33 12C11.7 12 12 11.7 12 11.33L12 6C12 5.63 11.7 5.33 11.33 5.33L7.33 5.33C6.96 5.33 6.66 5.63 6.66 6L6.66 11.33C6.66 11.7 6.96 12 7.33 12ZM6.66 0.66L6.66 3.33C6.66 3.7 6.96 4 7.33 4L11.33 4C11.7 4 12 3.7 12 3.33L12 0.66C12 0.29 11.7 0 11.33 0L7.33 0C6.96 0 6.66 0.29 6.66 0.66Z" fill-opacity="1.000000" fill-rule="nonzero"/>
</symbol>

<symbol id="orders" viewBox="0 0 12 12">
<path d="M9.334 24c-1.468 0-2.654 1.2-2.654 2.666 0 1.468 1.186 2.668 2.654 2.668 1.466 0 2.666-1.2 2.666-2.668 0-1.466-1.2-2.666-2.666-2.666zM1.334 4c0 0.734 0.6 1.334 1.332 1.334h1.334l4.8 10.12-1.8 3.252c-0.974 1.788 0.306 3.96 2.334 3.96h14.666c0.734 0 1.332-0.6 1.332-1.332 0-0.734-0.6-1.334-1.332-1.334h-14.666l1.466-2.666h9.932c1 0 1.88-0.548 2.334-1.374l4.774-8.654c0.104-0.185 0.165-0.406 0.165-0.642 0-0.733-0.593-1.327-1.325-1.33h-19.734l-0.892-1.908c-0.217-0.453-0.671-0.76-1.198-0.76-0.001 0-0.002 0-0.002 0h-2.19c-0.732 0-1.332 0.6-1.332 1.334zM22.666 24c-1.466 0-2.652 1.2-2.652 2.666 0 1.468 1.186 2.668 2.652 2.668s2.666-1.2 2.666-2.668c0-1.466-1.2-2.666-2.666-2.666z"></path>
</symbol>


<symbol id="products" viewBox="0 0 12 12">
<path d="M20 12.84v-7.504h1.334c0.737 0 1.334-0.597 1.334-1.334s-0.597-1.334-1.334-1.334v0h-10.668c-0.737 0-1.334 0.597-1.334 1.334s0.597 1.334 1.334 1.334v0h1.334v7.504l-6.97 10.24c-1.806 2.656 0.096 6.252 3.308 6.252h15.324c3.212 0 5.114-3.596 3.306-6.252l-6.968-10.238z"></path>
</symbol>


<symbol id="suppliers" viewBox="0 0 12 12">
<path d="M21.334 18.666h-4v4h-2.668v-4h-4v-2.666h4v-4h2.668v4h4zM28 6.666h-3.534l1.534-4.2-3.134-1.132-1.946 5.332h-16.92v2.668l2.666 8-2.666 8v2.666h24v-2.666l-2.666-8 2.666-8v-2.668z"></path>
</symbol>


<symbol id="customers" viewBox="0 0 12 12">
<path d="M21.334 22.666v2.668h-18.668v-2.668s0-5.332 9.334-5.332 9.334 5.332 9.334 5.332zM16.668 10c0-2.578-2.090-4.667-4.667-4.667s-4.667 2.090-4.667 4.667v0c0 2.578 2.090 4.667 4.667 4.667s4.667-2.089 4.667-4.667v0zM21.254 17.334c1.61 1.254 2.659 3.162 2.746 5.318l0 0.014v2.668h5.334v-2.668s0-4.84-8.080-5.332zM20 5.334c-0.008-0-0.017-0-0.027-0-0.951 0-1.834 0.294-2.562 0.796l0.015-0.010c0.779 1.077 1.246 2.424 1.246 3.88s-0.467 2.803-1.259 3.9l0.013-0.020c0.713 0.492 1.596 0.786 2.547 0.786 0.009 0 0.019-0 0.028-0h-0.001c2.577 0 4.666-2.089 4.666-4.666s-2.089-4.666-4.666-4.666v0z"></path>
</symbol>


<symbol id="logout-active" viewBox="0 0 32 32">
<path fill="#3f945f" style="fill: var(--color3, #3f945f)" d="M28.138 16.552c0 6.704-5.434 12.138-12.138 12.138s-12.138-5.434-12.138-12.138c0-6.704 5.434-12.138 12.138-12.138s12.138 5.434 12.138 12.138z"></path>
<path fill="#fff" style="fill: var(--color2, #fff)" d="M13.793 12.872c-0.298 0-0.574 0.116-0.783 0.32-0.204 0.21-0.32 0.491-0.32 0.783v5.148c0 0.292 0.116 0.574 0.32 0.783 0.21 0.204 0.486 0.32 0.783 0.32h2.207c0.292 0 0.568-0.116 0.778-0.32 0.204-0.21 0.326-0.491 0.326-0.783v-5.148c0-0.292-0.121-0.574-0.326-0.783-0.21-0.204-0.486-0.32-0.778-0.32h-2.207zM17.578 14.819c0.065-0.068 0.157-0.111 0.259-0.111s0.194 0.043 0.259 0.111l0 0 1.473 1.468c0.066 0.072 0.105 0.166 0.105 0.265 0 0.094-0.039 0.188-0.105 0.259l-1.473 1.468c-0.072 0.066-0.16 0.105-0.259 0.105-0.094 0-0.188-0.039-0.254-0.11-0.068-0.064-0.11-0.154-0.11-0.254v0c0-0.099 0.039-0.188 0.105-0.259l0.844-0.844h-3.161c-0.099 0-0.188-0.039-0.259-0.105-0.064-0.068-0.103-0.159-0.105-0.259v-0c0-0.099 0.039-0.193 0.105-0.265 0.072-0.066 0.16-0.105 0.259-0.105h3.161l-0.844-0.844c-0.068-0.065-0.111-0.157-0.111-0.259s0.043-0.194 0.111-0.259l0-0z"></path>
</symbol>

<symbol id="logout" viewBox="0 0 32 32">
<path fill="#59b17a" style="fill: var(--color1, #59b17a)" d="M28.138 16.552c0 6.704-5.434 12.138-12.138 12.138s-12.138-5.434-12.138-12.138c0-6.704 5.434-12.138 12.138-12.138s12.138 5.434 12.138 12.138z"></path>
<path fill="#fff" style="fill: var(--color2, #fff)" d="M13.793 12.872c-0.298 0-0.574 0.116-0.783 0.32-0.204 0.21-0.32 0.491-0.32 0.783v5.148c0 0.292 0.116 0.574 0.32 0.783 0.21 0.204 0.486 0.32 0.783 0.32h2.207c0.292 0 0.568-0.116 0.778-0.32 0.204-0.21 0.326-0.491 0.326-0.783v-5.148c0-0.292-0.121-0.574-0.326-0.783-0.21-0.204-0.486-0.32-0.778-0.32h-2.207zM17.578 14.819c0.065-0.068 0.157-0.111 0.259-0.111s0.194 0.043 0.259 0.111l0 0 1.473 1.468c0.066 0.072 0.105 0.166 0.105 0.265 0 0.094-0.039 0.188-0.105 0.259l-1.473 1.468c-0.072 0.066-0.16 0.105-0.259 0.105-0.094 0-0.188-0.039-0.254-0.11-0.068-0.064-0.11-0.154-0.11-0.254v0c0-0.099 0.039-0.188 0.105-0.259l0.844-0.844h-3.161c-0.099 0-0.188-0.039-0.259-0.105-0.064-0.068-0.103-0.159-0.105-0.259v-0c0-0.099 0.039-0.193 0.105-0.265 0.072-0.066 0.16-0.105 0.259-0.105h3.161l-0.844-0.844c-0.068-0.065-0.111-0.157-0.111-0.259s0.043-0.194 0.111-0.259l0-0z"></path>
</symbol>

<symbol id="chevron-up" viewBox="0 0 24 24">
<path d="M18.707 14.293l-6-6c-0.391-0.391-1.024-0.391-1.414 0l-6 6c-0.391 0.391-0.391 1.024 0 1.414s1.024 0.391 1.414 0l5.293-5.293 5.293 5.293c0.391 0.391 1.024 0.391 1.414 0s0.391-1.024 0-1.414z"></path>
</symbol>

<symbol id="menu-burger" viewBox="0 0 24 24">
<path d="M3 13h18c0.552 0 1-0.448 1-1s-0.448-1-1-1h-18c-0.552 0-1 0.448-1 1s0.448 1 1 1zM3 7h18c0.552 0 1-0.448 1-1s-0.448-1-1-1h-18c-0.552 0-1 0.448-1 1s0.448 1 1 1zM3 19h18c0.552 0 1-0.448 1-1s-0.448-1-1-1h-18c-0.552 0-1 0.448-1 1s0.448 1 1 1z"></path>
</symbol>

</defs>
</svg>